HIERARCHY
ROOT hip
{
	OFFSET 0.000000 0.000000 0.000000 
	CHANNELS 6 Xposition Yposition Zposition Xrotation Zrotation Yrotation
	JOINT abdomen
	{
		OFFSET 0.000000 3.402643 0.000000 
		CHANNELS 3 Xrotation Zrotation Yrotation
		JOINT chest
		{
			OFFSET 0.000000 8.438565 -0.680529 
			CHANNELS 3 Xrotation Zrotation Yrotation
			JOINT neck
			{
				OFFSET 0.000000 10.207942 -0.272212 
				CHANNELS 3 Xrotation Zrotation Yrotation
				JOINT head
				{
					OFFSET 0.000000 3.130431 0.000000 
					CHANNELS 3 Xrotation Zrotation Yrotation
					End Site
					{
						OFFSET 0.000000 3.130435 0.000000 
					}
				}
			}
			JOINT lCollar
			{
				OFFSET 3.470700 6.669187 -0.816635 
				CHANNELS 3 Yrotation Zrotation Xrotation
				JOINT lShldr
				{
					OFFSET 3.198488 0.000000 0.000000 
					CHANNELS 3 Zrotation Yrotation Xrotation
					JOINT lForeArm
					{
						OFFSET 10.139888 0.000000 0.000000 
						CHANNELS 3 Yrotation Zrotation Xrotation
						JOINT lHand
						{
							OFFSET 8.370511 0.000000 0.000000 
							CHANNELS 3 Zrotation Yrotation Xrotation
							End Site
							{
								OFFSET 4.083176 0.000000 0.000000 
							}
						}
					}
				}
			}
			JOINT rCollar
			{
				OFFSET -3.470700 6.669187 -0.816635 
				CHANNELS 3 Yrotation Zrotation Xrotation
				JOINT rShldr
				{
					OFFSET -3.198488 0.000000 0.000000 
					CHANNELS 3 Zrotation Yrotation Xrotation
					JOINT rForeArm
					{
						OFFSET -10.139888 0.000000 0.000000 
						CHANNELS 3 Yrotation Zrotation Xrotation
						JOINT rHand
						{
							OFFSET -8.370511 0.000000 0.000000 
							CHANNELS 3 Zrotation Yrotation Xrotation
							End Site
							{
								OFFSET -4.083176 0.000000 0.000000 
							}
						}
					}
				}
			}
		}
	}
	JOINT lThigh
	{
		OFFSET 5.308129 -1.633274 1.361059 
		CHANNELS 3 Xrotation Zrotation Yrotation
		JOINT lShin
		{
			OFFSET -2.041588 -20.007561 0.000000 
			CHANNELS 3 Xrotation Zrotation Yrotation
			JOINT lFoot
			{
				OFFSET 0.000000 -19.190928 -1.224953 
				CHANNELS 3 Xrotation Yrotation Zrotation
				End Site
				{
					OFFSET 0.000000 -2.449906 4.627600 
				}
			}
		}
	}
	JOINT rThigh
	{
		OFFSET -5.308129 -1.633274 1.361059 
		CHANNELS 3 Xrotation Zrotation Yrotation
		JOINT rShin
		{
			OFFSET 2.041588 -20.007561 0.000000 
			CHANNELS 3 Xrotation Zrotation Yrotation
			JOINT rFoot
			{
				OFFSET 0.000000 -19.190928 -1.224953 
				CHANNELS 3 Xrotation Yrotation Zrotation
				End Site
				{
					OFFSET 0.000000 -2.449906 4.627600 
				}
			}
		}
	}
}
MOTION
Frames: 15
Frame Time: 0.033333
-0.731756 50.444595 0.177915 1.280288 -2.312847 -7.721526 0.000000 0.000000 0.000000 0.452286 -0.671537 4.726810 5.417677 -0.194943 3.525403 32.407730 -7.567208 -1.005422 1.510354 0.202323 1.005503 -73.852806 -10.943684 21.357119 -84.193054 0.247082 -44.215710 23.863609 17.860512 -0.645268 7.988604 5.624956 0.902621 71.846245 27.514023 53.850365 72.655312 -5.621558 7.806458 -14.974782 -14.931766 -2.159353 -5.767496 6.976629 5.889828 17.134970 -2.743205 19.677603 -10.756383 0.512503 -5.250372 -2.440057 -7.085024 -4.325774 5.681938 2.655255 -6.403729 -2.685451 -0.186959 7.057408 
-0.917364 50.462936 0.065372 1.556004 -2.831328 -8.311320 0.000000 0.000000 0.000000 0.667499 -0.593144 5.312720 5.617117 -0.331562 3.046880 32.358475 -6.949026 -1.978004 1.843091 0.605485 1.210343 -74.628899 -13.175617 26.975826 -84.598480 0.773696 -46.688797 26.995264 16.106644 -0.591591 8.529594 5.439556 1.105119 72.616348 29.227114 53.525970 71.285149 -4.590742 6.356283 -14.298757 -17.244295 -1.952594 -6.082298 7.868331 6.385124 17.483568 -2.881526 19.781250 -10.833157 0.523066 -5.419493 -2.313485 -6.588024 -4.567914 4.741057 3.364368 -6.102417 -2.129838 -0.138358 6.339173 
-1.087792 50.467735 0.004785 1.514783 -3.120595 -8.391910 0.000000 0.000000 0.000000 1.071786 -0.651445 5.351882 5.989991 -0.185447 1.884756 31.883627 -7.656661 -2.847827 1.873736 0.774995 1.591055 -75.242561 -14.918449 29.753981 -84.588036 0.969996 -46.421028 26.656862 17.605162 -0.310751 8.589958 5.138446 1.492176 72.401527 29.920443 52.725342 71.300865 -3.889281 3.224584 -14.604013 -19.000008 -1.716316 -6.121798 8.298447 6.449639 17.681726 -2.707432 19.773975 -10.773806 0.551038 -5.708095 -1.620700 -6.626879 -4.856991 3.433336 3.685735 -5.299307 -1.463568 -0.104385 6.307845 
-1.296464 50.487495 -0.046046 1.759749 -3.305144 -8.276031 0.000000 0.000000 0.000000 1.230103 -0.671244 5.019872 6.313485 -0.283161 0.986316 31.398397 -7.790318 -3.253772 1.573001 0.643709 1.737619 -75.448479 -15.669369 29.672852 -84.310616 0.761813 -46.103146 23.637928 18.093222 -0.594680 8.355198 4.686492 1.647143 72.002213 29.452936 50.618065 71.961708 -3.365819 -0.205789 -13.206524 -19.409542 -1.860412 -6.366566 8.660909 6.374031 17.564327 -2.472854 19.639484 -10.518027 0.527607 -6.007915 -1.396056 -6.986285 -5.119769 2.263977 3.698195 -5.333607 -0.562347 -0.037636 6.545565 
-1.526328 50.510269 -0.061471 1.848664 -3.279555 -7.855132 0.000000 0.000000 0.000000 1.468748 -0.827572 4.453506 6.514456 -0.693301 0.742133 31.631641 -6.367252 -3.174891 0.985871 0.600525 1.962691 -75.216515 -16.307308 29.119617 -84.346336 0.580031 -46.462593 19.696007 18.114620 -1.126888 7.820444 4.351876 1.881564 71.474312 28.671972 48.200104 72.782486 -2.729741 -5.324105 -12.115834 -18.894102 -2.071233 -6.395192 8.728128 6.138726 17.154095 -2.209197 19.565388 -10.105843 0.564172 -6.242972 -1.532282 -7.861869 -5.678814 2.058672 3.481717 -6.373339 0.481773 -0.002906 7.432732 
-1.829043 50.520088 -0.075233 2.016130 -3.272143 -7.561533 0.000000 0.000000 0.000000 1.638976 -0.886628 3.887159 6.683310 -0.878885 0.400344 31.794617 -5.753388 -3.091988 0.425800 0.641183 2.119165 -74.496544 -17.347523 29.818161 -84.803314 0.692881 -48.192242 16.598631 19.280809 -1.378309 7.309680 4.092844 2.048025 70.729256 27.936739 46.413197 73.743721 -1.948991 -12.032584 -11.455534 -17.918789 -2.240560 -6.473211 8.962338 6.032323 16.885851 -2.001795 19.326553 -9.797494 0.572380 -6.568504 -1.991521 -8.841985 -6.081364 2.107935 3.112334 -7.698406 2.178095 0.144690 8.905182 
-2.193023 50.530376 -0.094801 2.266207 -3.235781 -7.238682 0.000000 0.000000 0.000000 1.753262 -0.906633 3.369491 6.897607 -0.859370 -0.205202 31.606628 -5.743209 -3.170696 0.036954 0.812584 2.216989 -73.786537 -18.935114 32.109707 -84.788162 1.015732 -48.958462 14.881360 19.752625 -1.561646 6.809135 4.233396 2.147605 69.700241 26.938261 44.553970 74.628593 -1.666673 -15.361346 -9.291251 -15.694397 -2.670524 -6.611456 9.345823 6.023041 16.551914 -1.866625 18.964643 -9.405348 0.612163 -6.952331 -2.547996 -9.895132 -6.428420 2.059498 2.712575 -8.835123 3.894855 0.333201 9.957630 
-2.596077 50.510353 -0.114769 2.414057 -2.937810 -6.864934 0.000000 0.000000 0.000000 1.920385 -1.004500 2.978913 7.121523 -0.869056 -0.800985 31.389986 -5.693292 -3.376692 -0.376945 0.844550 2.363410 -73.219276 -20.699617 34.575817 -84.058220 1.173536 -47.515667 13.634290 19.696280 -1.755861 6.425395 4.565896 2.277197 68.537720 26.017691 43.181240 75.700333 -2.066449 -15.679639 -9.707008 -14.275187 -2.744391 -6.785369 9.450002 5.806576 16.252569 -1.631222 19.148844 -8.920539 0.593838 -7.479218 -3.036162 -11.156290 -6.894000 1.988695 2.267470 -9.367755 5.058127 0.480261 10.447079 
-3.098172 50.480141 -0.143437 2.722249 -2.743954 -6.853712 0.000000 0.000000 0.000000 1.966985 -0.916878 2.793236 7.236089 -0.927534 -1.191566 31.223715 -5.750226 -3.632256 -0.675074 0.714519 2.402363 -72.800827 -22.293682 35.726307 -83.198692 0.988957 -45.859364 12.952517 20.182055 -1.798958 6.337443 5.014207 2.298475 67.262436 25.313885 42.433880 76.924461 -2.698474 -14.996902 -12.640512 -13.697190 -2.506745 -7.030793 9.832917 5.755974 16.075439 -1.445171 19.143618 -8.537921 0.621414 -8.135370 -3.719198 -12.149363 -6.996486 1.883420 1.872472 -9.237988 5.930326 0.536296 10.687627 
-3.701974 50.448914 -0.171727 3.046845 -2.560305 -6.745047 0.000000 0.000000 0.000000 2.056012 -0.790292 2.451343 7.234732 -1.034786 -1.533482 31.097120 -5.769151 -3.720683 -0.947150 0.428161 2.480140 -72.087395 -24.192831 36.176151 -82.358658 0.753459 -45.808094 13.204679 22.646702 -1.490911 6.029408 5.252596 2.358657 65.440468 24.825476 40.413830 77.544365 -3.415720 -10.486529 -8.726621 -13.035755 -2.917036 -7.097701 10.426054 5.914098 15.767690 -1.437703 18.829464 -8.192540 0.628762 -8.768173 -4.257622 -12.977179 -7.099352 1.746154 1.569159 -9.167566 6.544780 0.617817 10.974922 
-4.428740 50.397667 -0.212021 3.398002 -2.269952 -6.616560 0.000000 0.000000 0.000000 2.082166 -0.731916 2.128982 7.262199 -1.142022 -1.787533 30.885365 -5.652148 -3.729419 -1.207269 0.113467 2.499443 -71.486908 -25.653908 35.338612 -80.955696 0.472343 -45.260483 12.625523 25.977278 -1.271875 5.748612 5.379940 2.380075 63.229801 24.107471 37.294621 77.865074 -3.887322 -6.068223 -3.137448 -14.004932 -3.362745 -7.242658 11.028481 6.089030 15.402671 -1.396712 18.697529 -7.689482 0.627472 -9.506219 -4.608748 -13.590618 -7.069961 1.665869 1.175745 -9.406062 6.631033 0.684634 11.727054 
-5.282598 50.312584 -0.240275 3.614316 -2.008856 -6.410512 0.000000 0.000000 0.000000 2.166301 -0.644183 1.884866 7.472185 -1.171174 -1.983006 30.501631 -5.593616 -3.739132 -1.345006 -0.089423 2.557900 -71.140053 -25.992729 32.600510 -79.475594 -0.033731 -42.162861 12.873722 26.683651 -1.139091 5.605496 5.652661 2.429882 60.882271 23.070276 33.926559 77.990341 -3.853859 -4.405787 -3.020772 -15.055514 -3.365037 -7.341999 11.802827 6.304429 15.167904 -1.279476 18.206766 -7.152650 0.687891 -10.458726 -4.345584 -13.883802 -7.023295 1.666210 0.835719 -9.796757 5.705924 0.644355 13.116002 
-6.260054 50.217678 -0.257281 3.672710 -1.641937 -5.803428 0.000000 0.000000 0.000000 2.315860 -0.644276 1.611336 7.571458 -1.034297 -2.334486 30.756218 -5.885896 -3.750831 -1.537246 -0.365653 2.694403 -69.845695 -26.414171 29.310616 -77.901077 -0.585360 -39.215839 14.044133 26.570478 -0.906296 5.305974 5.936720 2.569358 58.090588 21.765863 29.153887 77.213234 -3.445390 -1.500894 -2.029426 -15.449221 -3.467004 -7.079031 12.585469 6.563357 14.291117 -1.160688 17.172396 -6.286952 0.643743 -11.369350 -3.427515 -14.001693 -7.353893 1.576103 0.783935 -10.367529 3.679366 0.443558 14.330370 
-7.381321 50.111973 -0.291772 3.631563 -1.206275 -5.030441 0.000000 0.000000 0.000000 2.531339 -0.693139 1.445325 7.661898 -0.946210 -2.705515 31.563547 -6.060336 -3.889876 -1.753454 -0.714015 2.879748 -67.657616 -27.034290 25.649734 -75.099258 -1.266005 -35.729889 12.431860 26.886694 -1.218194 5.080196 6.402556 2.748341 54.495426 20.302343 23.730284 75.149200 -2.625552 1.339580 -1.322851 -15.803789 -3.543467 -6.452213 13.429468 6.913196 12.784327 -1.093529 15.986044 -5.062194 0.573688 -12.335534 -2.470210 -13.809980 -7.723823 0.995486 1.111295 -11.050912 2.601373 0.274868 13.964234 
-8.621685 50.000004 -0.381045 3.602935 -0.895877 -4.326711 0.000000 0.000000 0.000000 2.816993 -0.634587 1.357447 8.040462 -0.848550 -2.861737 31.770420 -5.855321 -3.947110 -1.861559 -0.835127 3.123693 -65.342491 -27.294510 21.669090 -71.674065 -1.926723 -32.022896 12.497035 25.635340 -1.341592 4.946037 6.780388 2.995898 50.999729 18.935881 18.818794 72.088402 -1.502855 3.215564 -2.878231 -16.290741 -3.374566 -5.457383 14.359375 7.336349 10.480003 -0.876575 14.877950 -3.394010 0.406281 -13.388177 -3.690687 -13.187582 -7.300442 3.552099 1.462562 -12.354943 1.186834 0.149293 12.698933 
